<?xml version="1.0" standalone="no"?>
<!DOCTYPE svg PUBLIC "-//W3C//DTD SVG 20010904//EN"
 "http://www.w3.org/TR/2001/REC-SVG-20010904/DTD/svg10.dtd">
<svg version="1.0" xmlns="http://www.w3.org/2000/svg"
 width="854.000000pt" height="1280.000000pt" viewBox="0 0 854.000000 1280.000000"
 preserveAspectRatio="xMidYMid meet">

<g transform="translate(0.000000,1280.000000) scale(0.100000,-0.100000)"
fill="#000000" stroke="none">
<path d="M3932 10040 c-61 -37 -60 -56 4 -235 58 -163 73 -200 79 -193 2 2
-12 43 -31 91 -19 49 -32 92 -29 98 4 5 1 9 -4 9 -6 0 -11 8 -11 18 0 10 -4
22 -9 28 -4 5 -16 33 -25 62 -19 59 -9 96 22 86 13 -5 14 -4 3 4 -21 15 26 42
75 42 55 0 78 -9 65 -24 -7 -8 -4 -16 10 -24 12 -8 19 -9 19 -1 0 34 37 -45
66 -140 3 -8 7 -12 9 -9 6 6 -27 103 -49 146 -32 61 -128 82 -194 42z m168
-20 c0 -5 -2 -10 -4 -10 -3 0 -8 5 -11 10 -3 6 -1 10 4 10 6 0 11 -4 11 -10z"/>
<path d="M4640 10043 c0 -4 15 -9 32 -10 18 -2 34 -7 36 -13 2 -5 10 -10 18
-10 8 0 19 -12 24 -26 13 -32 13 -54 1 -36 -6 10 -10 9 -14 -7 -3 -12 -1 -21
4 -21 5 0 4 -12 -2 -27 -6 -16 -6 -23 -1 -18 5 6 15 26 21 46 20 63 -12 108
-86 124 -18 4 -33 3 -33 -2z"/>
<path d="M4573 10021 c-29 -18 -41 -39 -103 -176 -23 -49 -69 -179 -66 -183 2
-2 13 2 24 9 15 9 17 17 11 28 -7 12 0 40 27 101 20 47 38 95 41 108 3 13 11
21 18 18 8 -3 11 2 8 13 -5 21 42 82 60 76 29 -8 111 -13 92 -5 -11 5 -36 9
-55 10 -29 1 -32 3 -15 10 13 6 15 9 5 9 -8 1 -29 -8 -47 -18z"/>
<path d="M3970 10009 c0 -5 5 -7 10 -4 6 3 10 8 10 11 0 2 -4 4 -10 4 -5 0
-10 -5 -10 -11z"/>
<path d="M3497 9963 c-88 -28 -101 -42 -16 -17 118 34 147 38 173 26 30 -13
34 -29 9 -35 -10 -3 -6 -4 10 -4 34 2 34 10 1 36 -34 27 -78 26 -177 -6z"/>
<path d="M3515 9940 c-3 -5 -2 -10 4 -10 5 0 13 5 16 10 3 6 2 10 -4 10 -5 0
-13 -4 -16 -10z"/>
<path d="M5053 9940 c-23 -9 -43 -41 -62 -101 -10 -31 -9 -43 4 -70 15 -33 15
-28 0 20 -5 17 -4 21 5 16 8 -5 10 -2 6 11 -10 32 35 107 69 116 52 13 141
-25 134 -58 -1 -5 1 -17 6 -27 11 -26 -21 -136 -48 -165 -14 -15 -20 -34 -19
-60 2 -49 -57 -240 -68 -222 -5 8 -8 -2 -7 -26 1 -21 -2 -55 -6 -74 -6 -30 -6
-32 4 -10 6 14 17 48 24 75 21 75 48 165 94 312 58 185 55 219 -22 254 -45 20
-79 23 -114 9z m118 -291 c-9 -22 -10 -22 -10 -3 -1 11 2 24 6 27 12 12 14 0
4 -24z"/>
<path d="M3280 9894 c-58 -19 -89 -32 -70 -28 19 4 54 8 77 8 23 1 45 5 50 10
4 4 -6 5 -22 1 -23 -5 -26 -4 -15 4 8 6 22 11 31 11 9 0 32 7 50 15 59 25 8
15 -101 -21z"/>
<path d="M3701 9903 c-3 -53 -63 -115 -93 -97 -7 4 -8 3 -4 -4 5 -8 -2 -12
-21 -12 -16 0 -37 -6 -47 -13 -14 -11 -15 -17 -6 -42 6 -15 9 -34 6 -42 -3 -7
-1 -13 5 -13 6 0 8 -7 5 -16 -3 -8 -2 -12 4 -9 12 8 12 3 0 -29 -6 -18 -6 -27
3 -32 7 -4 9 -4 5 1 -4 4 -3 16 3 26 9 18 -1 70 -26 131 -5 13 1 18 32 24 89
16 148 67 140 121 -3 21 -4 22 -6 6z"/>
<path d="M4511 9854 c0 -11 3 -14 6 -6 3 7 2 16 -1 19 -3 4 -6 -2 -5 -13z"/>
<path d="M3113 9839 c-55 -27 -79 -75 -62 -123 24 -66 89 -82 191 -45 75 28
70 35 -7 9 -32 -11 -72 -20 -89 -20 -38 1 -81 34 -72 55 3 9 2 14 -3 11 -14
-9 -20 29 -8 50 15 28 60 64 79 64 9 0 20 5 23 10 9 15 -6 12 -52 -11z"/>
<path d="M4710 9824 c-9 -26 -15 -33 -21 -23 -13 20 -11 31 4 23 9 -5 9 -4 0
6 -18 20 -28 4 -15 -24 12 -26 -1 -67 -65 -206 -14 -30 -32 -73 -39 -94 -8
-22 -19 -45 -25 -52 -6 -7 -9 -19 -6 -26 3 -8 9 -2 15 13 6 15 47 113 92 219
45 105 79 194 77 197 -3 2 -10 -12 -17 -33z"/>
<path d="M4176 9825 c4 -8 8 -15 10 -15 2 0 4 7 4 15 0 8 -4 15 -10 15 -5 0
-7 -7 -4 -15z"/>
<path d="M4190 9794 c0 -5 11 -42 25 -83 14 -41 26 -85 27 -98 1 -13 6 -23 10
-23 12 0 10 9 -23 110 -29 90 -39 115 -39 94z"/>
<path d="M4165 9780 c-3 -5 -1 -10 4 -10 6 0 11 5 11 10 0 6 -2 10 -4 10 -3 0
-8 -4 -11 -10z"/>
<path d="M4966 9765 c-3 -9 -6 -24 -5 -33 0 -9 5 -4 10 12 9 32 6 48 -5 21z"/>
<path d="M5587 9742 c-15 -10 -24 -21 -21 -25 4 -3 13 0 21 8 17 18 41 19 80
4 22 -8 25 -12 13 -21 -12 -8 -11 -9 3 -4 11 3 31 0 45 -8 15 -9 43 -22 62
-31 32 -15 33 -15 15 0 -17 14 -177 95 -187 95 -1 0 -15 -8 -31 -18z"/>
<path d="M4181 9734 c0 -11 3 -14 6 -6 3 7 2 16 -1 19 -3 4 -6 -2 -5 -13z"/>
<path d="M5157 9723 c-4 -3 -7 -11 -7 -17 0 -6 5 -5 12 2 6 6 9 14 7 17 -3 3
-9 2 -12 -2z"/>
<path d="M3248 9713 c7 -3 16 -2 19 1 4 3 -2 6 -13 5 -11 0 -14 -3 -6 -6z"/>
<path d="M3106 9695 c4 -8 8 -15 10 -15 2 0 4 7 4 15 0 8 -4 15 -10 15 -5 0
-7 -7 -4 -15z"/>
<path d="M4891 9504 c-45 -145 -60 -209 -53 -216 8 -8 9 -4 6 13 -5 19 -4 21
5 9 9 -12 11 -11 12 10 1 14 3 36 4 50 1 14 16 66 33 116 35 105 65 214 59
220 -2 2 -32 -89 -66 -202z"/>
<path d="M5540 9688 c-12 -22 -12 -22 6 -6 10 10 15 20 12 24 -4 3 -12 -5 -18
-18z"/>
<path d="M5580 9690 c0 -5 5 -10 10 -10 6 0 10 5 10 10 0 6 -4 10 -10 10 -5 0
-10 -4 -10 -10z"/>
<path d="M3311 9675 c0 -5 6 -30 13 -55 8 -25 15 -36 15 -25 -1 21 -27 98 -28
80z"/>
<path d="M4617 9673 c-4 -3 -7 -13 -7 -22 1 -13 3 -13 11 2 11 19 8 33 -4 20z"/>
<path d="M2748 9663 c12 -2 30 -2 40 0 9 3 -1 5 -23 4 -22 0 -30 -2 -17 -4z"/>
<path d="M2645 9614 c-78 -51 -76 -54 8 -9 31 17 59 36 62 43 6 16 10 18 -70
-34z"/>
<path d="M2813 9654 c3 -4 2 -15 -3 -25 -7 -12 -7 -20 0 -24 6 -4 10 -3 9 2
-3 19 2 33 11 33 6 0 8 -10 4 -24 -3 -13 -2 -26 3 -29 10 -6 10 44 0 61 -5 6
-13 12 -19 12 -6 0 -8 -3 -5 -6z"/>
<path d="M5484 9593 c-20 -37 -53 -95 -72 -128 -19 -33 -37 -63 -38 -66 -2 -4
2 -12 10 -18 10 -9 15 -8 20 4 3 9 2 13 -4 10 -15 -10 -12 2 15 53 53 99 84
147 94 148 6 1 16 2 21 3 6 0 10 6 10 12 0 8 -5 8 -15 -1 -18 -15 -19 -7 -4
22 6 11 8 22 6 25 -3 2 -22 -26 -43 -64z"/>
<path d="M4381 9619 c-14 -42 -7 -49 9 -9 7 17 10 33 8 36 -3 3 -11 -9 -17
-27z"/>
<path d="M5795 9634 c9 -9 19 -13 23 -10 3 4 0 11 -8 16 -24 15 -33 11 -15 -6z"/>
<path d="M5855 9625 c17 -14 38 -25 48 -25 10 0 20 -7 23 -15 4 -8 12 -15 19
-15 8 0 17 -5 21 -12 4 -6 3 -8 -4 -4 -6 3 -14 1 -18 -5 -5 -9 0 -10 16 -6 24
6 55 -15 42 -28 -4 -5 -2 -5 5 -1 15 8 55 -34 48 -52 -2 -7 0 -10 5 -7 12 8
33 -42 24 -58 -5 -9 -3 -9 6 0 31 28 -44 123 -154 195 -33 21 -65 38 -73 38
-7 0 -13 5 -13 10 0 6 -6 10 -12 10 -7 -1 1 -12 17 -25z"/>
<path d="M2715 9610 c3 -5 8 -10 11 -10 2 0 4 5 4 10 0 6 -5 10 -11 10 -5 0
-7 -4 -4 -10z"/>
<path d="M3570 9615 c0 -8 25 -108 36 -144 3 -8 7 -12 10 -9 5 6 -32 147 -41
156 -3 3 -5 2 -5 -3z"/>
<path d="M2861 9579 c-1 -35 -21 -66 -34 -53 -3 3 -14 1 -24 -6 -16 -9 -15
-10 7 -4 41 10 13 -11 -115 -89 -65 -40 -120 -79 -122 -87 -3 -11 -1 -11 10 3
8 9 19 17 24 17 5 0 35 18 67 40 31 22 59 40 62 40 3 0 32 18 64 40 61 41 76
66 67 111 -3 17 -5 13 -6 -12z"/>
<path d="M4058 9476 c26 -69 49 -123 52 -121 4 2 7 -8 7 -23 0 -15 14 -57 31
-92 37 -78 72 -100 158 -100 100 0 141 34 192 159 12 30 21 56 18 58 -3 4 -46
-90 -46 -103 0 -17 -52 -74 -62 -68 -7 4 -8 2 -4 -4 10 -16 -35 -32 -87 -32
-50 0 -117 17 -117 30 0 5 8 7 18 3 9 -3 14 -3 10 1 -5 6 -24 12 -49 15 -12 2
-31 60 -23 73 4 7 3 9 -2 5 -14 -13 -33 55 -22 77 7 13 7 16 -1 12 -15 -10
-34 26 -72 137 -18 53 -36 97 -40 97 -3 0 14 -56 39 -124z"/>
<path d="M4048 9575 c2 -14 6 -25 8 -25 2 0 4 11 4 25 0 14 -4 25 -9 25 -4 0
-6 -11 -3 -25z"/>
<path d="M4261 9575 c-1 -15 27 -126 33 -133 12 -11 4 34 -14 88 -10 30 -18
51 -19 45z"/>
<path d="M2530 9544 c-19 -13 -30 -24 -25 -24 6 0 18 7 29 15 14 11 22 11 37
2 14 -9 21 -9 31 2 11 11 9 12 -11 6 -15 -5 -21 -4 -17 3 13 21 -10 19 -44 -4z"/>
<path d="M3341 9563 c0 -4 4 -17 9 -28 8 -19 9 -19 9 2 1 12 -3 25 -9 28 -5 3
-10 3 -9 -2z"/>
<path d="M4342 9516 c-25 -65 -26 -76 -11 -76 5 0 8 4 5 9 -4 5 3 31 14 57 11
26 19 52 17 57 -2 6 -13 -16 -25 -47z"/>
<path d="M4380 9563 c0 -4 5 -15 10 -23 8 -13 10 -13 10 2 0 9 -4 20 -10 23
-5 3 -10 3 -10 -2z"/>
<path d="M4929 9545 c-7 -25 16 -52 25 -29 3 8 2 12 -3 9 -5 -3 -11 5 -13 17
-3 22 -4 22 -9 3z"/>
<path d="M3546 9533 c-6 -14 -5 -15 5 -6 7 7 10 15 7 18 -3 3 -9 -2 -12 -12z"/>
<path d="M2425 9480 c-84 -54 -105 -78 -105 -120 0 -20 7 -45 16 -56 15 -19
16 -19 8 1 -24 62 3 135 48 135 11 0 17 4 13 9 -6 11 33 26 55 22 8 -2 12 1 7
5 -4 4 0 16 10 26 22 25 17 23 -52 -22z"/>
<path d="M5676 9512 c-3 -2 -2 -10 1 -18 3 -8 0 -21 -7 -29 -7 -9 -10 -18 -7
-21 3 -3 15 12 26 33 16 32 17 40 5 40 -8 0 -16 -2 -18 -5z"/>
<path d="M5720 9516 c0 -2 7 -7 16 -10 8 -3 12 -2 9 4 -6 10 -25 14 -25 6z"/>
<path d="M3363 9495 c13 -49 108 -363 118 -388 16 -37 55 -67 91 -67 39 0 104
34 125 66 15 24 15 30 -2 102 -10 42 -20 72 -22 66 -2 -6 1 -31 8 -55 18 -71
17 -101 -4 -105 -22 -3 -36 -14 -19 -14 18 0 14 -17 -5 -25 -58 -24 -123 -22
-123 3 0 14 -2 15 -10 2 -8 -12 -10 -12 -16 3 -4 10 -2 23 5 30 6 6 11 15 11
21 0 5 -6 2 -13 -8 -12 -17 -15 -13 -31 40 -10 33 -26 84 -36 114 -10 30 -26
84 -36 120 -17 59 -54 146 -41 95z"/>
<path d="M5461 9484 c0 -11 3 -14 6 -6 3 7 2 16 -1 19 -3 4 -6 -2 -5 -13z"/>
<path d="M5793 9476 c62 -38 87 -67 87 -100 0 -24 3 -27 10 -16 12 18 3 52
-17 63 -7 5 -11 13 -7 18 3 6 -3 13 -15 16 -11 3 -18 10 -14 16 3 6 1 7 -5 3
-7 -4 -22 0 -34 8 -12 9 -27 16 -33 16 -5 0 7 -11 28 -24z"/>
<path d="M6007 9486 c-4 -10 -1 -13 8 -9 8 3 12 9 9 14 -7 12 -11 11 -17 -5z"/>
<path d="M5646 9475 c-3 -9 -6 -22 -5 -28 0 -7 5 -1 10 12 5 13 8 26 5 28 -2
2 -6 -3 -10 -12z"/>
<path d="M5082 9440 c0 -14 2 -19 5 -12 2 6 2 18 0 25 -3 6 -5 1 -5 -13z"/>
<path d="M3620 9440 c0 -20 43 -155 47 -144 1 5 -8 43 -22 84 -13 41 -24 68
-25 60z"/>
<path d="M5645 9410 c-4 -14 -12 -19 -22 -16 -11 5 -13 1 -8 -15 6 -16 4 -20
-6 -14 -8 5 -3 -3 9 -17 13 -15 32 -28 43 -31 28 -7 23 0 -11 18 l-31 16 22
35 c12 19 19 37 16 40 -3 3 -8 -4 -12 -16z"/>
<path d="M3600 9370 c0 -11 5 -20 11 -20 7 0 9 -9 6 -21 -4 -14 -2 -18 4 -12
11 11 1 73 -12 73 -5 0 -9 -9 -9 -20z"/>
<path d="M6101 9350 c0 -26 -6 -51 -13 -58 -7 -7 -9 -12 -5 -12 16 0 -25 -60
-65 -94 -43 -37 -91 -56 -144 -56 -20 0 -31 -5 -31 -15 0 -9 4 -11 11 -6 6 4
31 11 56 15 117 18 213 136 197 242 -3 21 -4 16 -6 -16z"/>
<path d="M5335 9327 c-17 -28 -31 -55 -33 -59 -4 -9 37 3 44 13 3 5 -2 6 -11
3 -12 -5 -10 5 10 41 15 26 25 48 23 50 -2 2 -17 -19 -33 -48z"/>
<path d="M6082 9340 c0 -14 2 -19 5 -12 2 6 2 18 0 25 -3 6 -5 1 -5 -13z"/>
<path d="M2874 9335 c-18 -14 -17 -14 9 -5 39 14 80 13 71 -2 -4 -6 -3 -8 3
-5 5 3 19 -1 31 -9 18 -12 21 -23 18 -56 -3 -23 -11 -45 -20 -50 -8 -5 -21
-14 -28 -21 -28 -27 -69 -47 -81 -41 -7 4 -9 4 -5 -1 9 -10 -51 -49 -60 -40
-4 3 0 10 8 15 8 5 11 12 7 17 -10 10 -28 -18 -22 -34 2 -7 -4 -17 -13 -22 -9
-6 -13 -11 -9 -11 15 0 182 104 210 131 19 20 27 38 27 62 0 67 -93 112 -146
72z"/>
<path d="M5873 9333 c11 -10 -51 -63 -73 -63 -11 0 -36 6 -55 14 -26 11 -36
12 -41 3 -4 -7 -4 -9 0 -5 5 4 25 -2 46 -13 l39 -20 43 20 c24 11 39 20 34 21
-12 0 14 30 26 30 6 0 8 -7 5 -15 -4 -8 -3 -17 2 -19 11 -7 10 27 -2 42 -5 6
-14 12 -20 12 -6 0 -7 -3 -4 -7z"/>
<path d="M2590 9323 c0 -6 5 -15 11 -18 6 -4 8 -13 6 -19 -3 -7 1 -13 8 -13
10 0 11 5 5 16 -20 35 -30 46 -30 34z"/>
<path d="M2746 9259 c-68 -45 -79 -47 -100 -17 -9 12 -16 18 -16 12 0 -18 44
-50 70 -50 17 -1 19 0 6 3 -16 4 -12 9 20 29 21 13 51 29 67 35 15 6 27 15 27
20 0 15 -12 10 -74 -32z"/>
<path d="M5630 9290 c0 -5 5 -10 11 -10 5 0 7 5 4 10 -3 6 -8 10 -11 10 -2 0
-4 -4 -4 -10z"/>
<path d="M2370 9244 c25 -46 79 -115 61 -77 -6 12 -8 23 -3 26 4 2 1 2 -5 1
-17 -4 -33 28 -27 53 3 12 0 24 -6 28 -9 5 -10 1 -5 -16 l6 -24 -21 25 c-22
25 -22 25 0 -16z"/>
<path d="M4805 9216 c-17 -63 -14 -123 5 -111 6 3 5 15 -2 29 -8 19 -6 37 7
80 10 31 16 59 13 62 -3 3 -13 -24 -23 -60z"/>
<path d="M5047 9253 c-4 -3 -7 -16 -6 -27 0 -19 1 -19 10 3 10 24 8 36 -4 24z"/>
<path d="M2600 9245 c0 -5 5 -17 10 -25 5 -8 10 -10 10 -5 0 6 -5 17 -10 25
-5 8 -10 11 -10 5z"/>
<path d="M4401 9234 c0 -11 3 -14 6 -6 3 7 2 16 -1 19 -3 4 -6 -2 -5 -13z"/>
<path d="M5256 9186 c-20 -35 -36 -70 -36 -78 1 -7 7 1 15 17 7 17 14 25 14
19 1 -6 8 -11 16 -11 18 0 19 9 4 24 -8 8 -5 22 10 52 33 64 17 48 -23 -23z"/>
<path d="M4842 9220 c0 -14 2 -19 5 -12 2 6 2 18 0 25 -3 6 -5 1 -5 -13z"/>
<path d="M2880 9192 c0 -4 12 -8 28 -9 23 -1 24 -1 7 7 -26 11 -35 12 -35 2z"/>
<path d="M5022 9172 c-6 -14 -12 -32 -12 -40 0 -7 -4 -11 -9 -8 -5 3 -8 -2 -7
-12 0 -10 -13 -24 -34 -34 -27 -14 -30 -18 -14 -18 30 0 68 42 83 91 14 48 11
59 -7 21z"/>
<path d="M5495 9154 c-21 -36 -30 -43 -37 -33 -7 10 -7 7 -3 -8 5 -19 3 -22
-12 -16 -14 5 -16 3 -6 -7 8 -9 9 -19 2 -34 -7 -17 -6 -16 8 3 25 33 85 141
80 141 -3 0 -17 -21 -32 -46z"/>
<path d="M5565 9185 c8 -5 39 -25 69 -44 29 -19 59 -44 66 -55 16 -26 15 -94
-3 -115 -29 -33 -28 -40 3 -25 16 9 30 18 30 20 0 3 -5 2 -12 -2 -8 -5 -9 -2
-5 10 4 10 7 27 8 39 1 20 2 20 9 -3 8 -24 8 -24 9 -3 1 12 -8 38 -19 58 -25
44 -25 53 -2 32 16 -15 18 -15 18 2 0 14 -7 18 -23 16 -31 -3 -132 71 -106 78
10 3 1 4 -20 3 -28 -1 -34 -3 -22 -11z"/>
<path d="M5974 9188 c10 -6 22 -6 26 -2 5 5 -3 10 -18 11 -22 1 -24 0 -8 -9z"/>
<path d="M5635 9180 c-4 -6 1 -7 11 -3 12 4 15 3 10 -5 -5 -8 -2 -10 9 -5 13
5 14 7 3 14 -17 11 -26 11 -33 -1z"/>
<path d="M3670 9161 c0 -11 4 -22 9 -25 4 -3 6 6 3 19 -5 30 -12 33 -12 6z"/>
<path d="M6415 9132 c-42 -26 -525 -474 -552 -513 -45 -64 -34 -82 199 -322
136 -140 145 -147 181 -147 31 0 45 7 68 31 16 17 29 36 29 42 0 6 -7 1 -16
-11 -12 -17 -19 -20 -33 -12 -10 5 -22 6 -26 2 -6 -7 -10 -8 -36 -11 -5 0 -7
-6 -4 -11 4 -7 12 -7 25 0 25 13 50 13 50 -1 0 -6 -7 -8 -16 -5 -8 3 -12 2 -9
-4 7 -11 -44 -14 -69 -4 -14 5 -14 8 -1 21 8 8 15 20 15 26 0 9 -3 8 -8 -1 -6
-9 -14 -6 -32 13 -13 14 -30 23 -37 21 -7 -3 -15 -1 -18 4 -4 6 -1 10 6 10 7
0 5 8 -6 20 -11 12 -21 16 -25 10 -3 -5 -25 10 -50 35 -39 40 -42 46 -29 62
13 16 12 17 -3 4 -12 -9 -18 -10 -18 -2 0 6 -4 10 -8 8 -5 -1 -32 23 -60 55
-73 79 -98 148 -54 148 15 0 15 2 2 10 -13 8 -10 14 15 34 16 13 34 22 39 19
5 -4 6 -2 3 4 -3 5 9 25 28 43 30 29 36 32 52 19 10 -7 15 -9 11 -5 -4 5 -2
16 5 25 11 14 10 14 -5 2 -22 -16 -24 1 -3 19 8 6 20 8 26 4 7 -4 9 -3 6 3 -7
11 16 37 24 29 2 -3 15 4 29 15 20 16 21 18 5 13 -12 -4 -3 10 25 37 25 23 52
43 60 43 8 1 15 8 15 16 1 8 7 14 14 12 7 -1 10 1 7 6 -8 13 101 115 115 106
7 -4 10 -3 6 3 -7 11 56 73 73 73 4 0 16 3 26 7 11 4 15 3 11 -4 -4 -6 0 -13
8 -16 9 -4 12 -1 8 9 -9 23 14 16 49 -16 28 -25 30 -29 13 -30 -19 0 -18 -1 2
-15 12 -9 26 -14 30 -13 11 4 93 -83 88 -92 -3 -4 2 -13 10 -20 8 -7 15 -9 15
-5 0 5 27 -20 60 -55 33 -34 57 -67 54 -72 -3 -5 0 -7 7 -6 19 4 41 -47 33
-77 -3 -14 -11 -25 -18 -24 -23 3 -36 -1 -36 -12 0 -8 6 -7 17 2 14 12 16 12
11 -1 -2 -8 -24 -20 -49 -27 l-44 -11 36 -1 c30 -1 43 6 68 34 53 61 44 81
-112 248 -67 73 -133 143 -145 156 -55 61 -105 75 -157 43z m160 -62 c3 -5 1
-10 -4 -10 -6 0 -11 5 -11 10 0 6 2 10 4 10 3 0 8 -4 11 -10z m-455 -800 c0
-5 -4 -10 -10 -10 -5 0 -10 5 -10 10 0 6 5 10 10 10 6 0 10 -4 10 -10z m61
-62 c9 -17 8 -18 -10 -6 -25 15 -36 39 -15 31 8 -3 19 -14 25 -25z"/>
<path d="M2440 9134 c0 -3 11 -22 25 -42 30 -44 33 -33 4 14 -19 32 -29 41
-29 28z"/>
<path d="M2025 9098 c-51 -19 -112 -66 -172 -134 -32 -37 -75 -85 -95 -108
-20 -22 -34 -43 -32 -45 2 -3 12 4 22 15 79 89 102 111 108 106 4 -4 4 1 0 12
-5 14 -2 17 9 12 9 -3 14 -2 11 3 -7 11 38 53 47 44 4 -3 7 2 7 13 0 14 18 29
63 51 34 17 69 34 77 36 13 5 13 5 0 5 -8 0 -28 -4 -45 -10z"/>
<path d="M2168 9103 c7 -3 16 -2 19 1 4 3 -2 6 -13 5 -11 0 -14 -3 -6 -6z"/>
<path d="M2213 9090 c9 -6 14 -16 11 -22 -5 -8 -1 -9 10 -5 26 10 87 -33 80
-58 -4 -15 -3 -17 5 -6 8 12 12 12 25 2 17 -15 22 -36 6 -26 -6 3 -7 -1 -4
-10 5 -12 9 -13 21 -4 12 10 9 17 -14 42 -36 38 -101 82 -133 91 -21 6 -22 5
-7 -4z"/>
<path d="M4820 9096 c0 -11 60 -36 82 -35 19 1 18 2 -7 8 -16 4 -40 13 -52 20
-13 6 -23 9 -23 7z"/>
<path d="M5192 9075 c-17 -36 -15 -78 4 -101 15 -19 16 -19 9 1 -16 46 -17 57
-5 85 16 37 8 50 -8 15z"/>
<path d="M5860 9095 c0 -6 5 -16 12 -23 8 -8 9 -15 1 -23 -11 -11 -5 -59 7
-59 5 0 7 14 5 30 -4 27 -3 29 11 15 8 -8 12 -19 9 -25 -3 -5 -2 -10 4 -10 6
0 8 -26 6 -67 -3 -45 -1 -61 5 -48 14 31 11 102 -4 138 -17 37 -55 87 -56 72z"/>
<path d="M6385 9081 c-3 -5 -1 -12 5 -16 5 -3 10 1 10 9 0 18 -6 21 -15 7z"/>
<path d="M3146 9072 c-19 -4 -166 -90 -166 -98 0 -8 56 18 75 35 39 34 75 51
107 51 43 0 81 -26 75 -51 -3 -12 -1 -17 5 -12 8 4 9 -5 5 -28 -5 -29 -4 -31
5 -12 10 21 6 56 -10 80 -11 17 -74 40 -96 35z"/>
<path d="M2756 9058 c4 -7 13 -20 19 -28 29 -36 64 -111 59 -127 -5 -17 -5
-17 6 -1 12 19 -3 57 -46 115 -13 17 -24 36 -24 42 0 6 -5 11 -11 11 -5 0 -7
-6 -3 -12z"/>
<path d="M2500 9052 c0 -13 49 -92 57 -92 3 0 -3 12 -13 28 -10 15 -24 38 -31
52 -7 14 -13 19 -13 12z"/>
<path d="M2208 9043 c7 -3 16 -2 19 1 4 3 -2 6 -13 5 -11 0 -14 -3 -6 -6z"/>
<path d="M5440 9022 c0 -6 8 -13 17 -16 14 -6 15 -9 4 -16 -10 -5 -6 -8 12 -7
15 1 27 3 27 4 0 1 -13 11 -30 23 -16 12 -30 17 -30 12z"/>
<path d="M2755 9000 c-3 -6 1 -7 9 -4 18 7 21 14 7 14 -6 0 -13 -4 -16 -10z"/>
<path d="M1899 8973 c-13 -16 -12 -17 4 -4 16 13 21 21 13 21 -2 0 -10 -8 -17
-17z"/>
<path d="M5518 8967 c7 -7 8 -18 4 -23 -4 -5 -3 -6 2 -2 5 4 17 3 28 -3 37
-20 29 -2 -8 21 -21 12 -32 15 -26 7z"/>
<path d="M2917 8939 c-26 -18 -45 -34 -43 -36 4 -4 57 30 91 59 20 17 -2 6
-48 -23z"/>
<path d="M2376 8944 c-3 -8 -2 -13 3 -10 12 8 31 -39 37 -93 4 -35 3 -42 -5
-31 -9 11 -10 5 -5 -27 4 -29 1 -55 -10 -83 -9 -23 -12 -39 -7 -36 36 23 48
196 18 259 -20 42 -22 43 -31 21z"/>
<path d="M5220 8956 c0 -21 363 -226 376 -213 2 2 -16 12 -41 21 -27 11 -42
22 -39 28 4 7 2 8 -4 4 -11 -7 -76 27 -67 36 3 2 -1 5 -8 5 -15 0 -127 62
-127 70 0 3 9 3 20 0 12 -3 18 -1 14 5 -3 5 -15 7 -26 4 -12 -3 -37 5 -59 20
-22 13 -39 22 -39 20z"/>
<path d="M2573 8930 c9 -14 24 -38 33 -55 9 -16 41 -66 70 -111 53 -79 84
-105 127 -103 24 1 18 4 -27 14 -24 5 -27 8 -15 16 10 8 9 9 -8 4 -16 -4 -23
-1 -28 15 -3 11 -10 20 -14 20 -7 0 -31 43 -31 56 0 3 5 2 12 -2 7 -4 8 -3 4
5 -4 6 -11 9 -16 6 -16 -10 -84 109 -75 132 3 10 1 13 -9 10 -7 -3 -19 0 -27
6 -7 7 -5 1 4 -13z"/>
<path d="M3209 8938 c-1 -7 -1 -16 0 -21 2 -15 -93 -67 -114 -62 -20 6 -20 6
-1 -9 11 -9 22 -12 25 -7 3 4 24 17 46 29 43 21 95 69 62 56 -13 -5 -16 -2
-11 10 3 9 3 16 0 16 -3 0 -7 -6 -7 -12z"/>
<path d="M2806 8927 c3 -10 9 -15 12 -12 3 3 0 11 -7 18 -10 9 -11 8 -5 -6z"/>
<path d="M5602 8918 c16 -10 45 -10 51 0 3 4 -10 7 -29 8 -21 0 -30 -3 -22 -8z"/>
<path d="M6481 8918 c-1 -9 -7 -21 -13 -25 -7 -5 -31 -29 -53 -53 -36 -41 -35
-40 16 8 l56 53 47 -52 c38 -42 49 -50 59 -39 9 10 9 11 -2 5 -8 -4 -17 -2
-22 6 -11 19 11 31 31 16 12 -9 13 -9 3 3 -10 11 -10 17 0 29 11 14 10 14 -5
2 -10 -7 -18 -10 -18 -5 0 5 -7 1 -14 -8 -12 -16 -15 -15 -41 13 -22 25 -25
33 -14 41 11 8 10 9 -3 5 -9 -3 -19 -1 -22 6 -2 7 -5 4 -5 -5z"/>
<path d="M3125 8899 c-4 -6 -5 -12 -2 -15 2 -3 7 2 10 11 7 17 1 20 -8 4z"/>
<path d="M2060 8893 c-8 -3 -27 -14 -41 -24 -14 -10 -29 -15 -33 -12 -4 4 -4
0 0 -10 6 -17 2 -19 -42 -20 -11 0 -21 -6 -21 -14 0 -9 4 -10 11 -3 21 21 28
9 7 -14 -14 -15 -19 -26 -12 -31 6 -3 11 -14 11 -23 0 -15 -2 -15 -10 -2 -6 9
-10 10 -10 3 0 -17 17 -25 25 -13 5 8 12 7 23 -2 10 -7 6 0 -7 15 -24 27 -24
27 -5 49 39 45 89 88 100 88 7 0 16 5 19 10 7 11 7 11 -15 3z"/>
<path d="M5618 8893 c7 -3 16 -2 19 1 4 3 -2 6 -13 5 -11 0 -14 -3 -6 -6z"/>
<path d="M2135 8871 c42 -19 85 -80 85 -119 0 -12 -23 -49 -52 -84 -28 -35
-40 -52 -25 -39 14 12 30 20 35 17 5 -3 16 2 23 12 13 15 12 16 -3 3 -25 -19
-22 -7 8 39 22 32 25 46 19 80 -4 22 -12 46 -19 53 -7 7 -11 17 -9 24 2 6 -1
15 -8 19 -8 4 -9 3 -5 -4 10 -17 -6 -15 -30 3 -10 8 -28 14 -39 14 -13 1 -5
-6 20 -18z"/>
<path d="M5864 8860 c0 -13 4 -16 10 -10 7 7 7 13 0 20 -6 6 -10 3 -10 -10z"/>
<path d="M5881 8837 c-7 -13 -38 -40 -68 -60 -61 -41 -63 -48 -4 -17 38 19 91
72 91 91 0 15 -6 10 -19 -14z"/>
<path d="M2660 8841 c0 -6 4 -13 10 -16 6 -3 7 1 4 9 -7 18 -14 21 -14 7z"/>
<path d="M3075 8820 c-3 -6 1 -7 9 -4 18 7 21 14 7 14 -6 0 -13 -4 -16 -10z"/>
<path d="M3036 8804 c-4 -9 -13 -14 -21 -10 -8 3 -14 1 -12 -5 1 -6 -13 -19
-30 -29 -18 -9 -39 -23 -47 -29 -7 -6 -20 -10 -27 -8 -8 2 -10 2 -6 -1 4 -2 2
-11 -5 -20 -13 -16 17 0 102 55 66 42 74 49 63 56 -6 4 -14 0 -17 -9z"/>
<path d="M6346 8803 c-6 -15 -8 -15 -16 -3 -6 8 -10 10 -10 4 0 -5 7 -19 16
-30 12 -14 14 -15 11 -3 -3 9 0 22 6 28 6 6 8 13 5 16 -3 3 -9 -2 -12 -12z"/>
<path d="M1686 8760 c-17 -43 -12 -71 21 -105 47 -49 226 -210 236 -213 7 -2
5 1 -3 7 -13 10 -13 12 0 22 13 9 13 10 -1 6 -9 -3 -27 4 -40 16 -89 79 -136
124 -146 142 -7 11 -12 16 -13 12 0 -17 -60 59 -60 76 0 5 6 4 13 -2 14 -11
27 -5 27 13 0 6 -4 4 -10 -4 -8 -12 -10 -12 -15 2 -4 9 1 28 10 42 10 14 13
26 7 26 -5 0 -17 -18 -26 -40z"/>
<path d="M5582 8791 c-11 -7 -11 -9 0 -14 9 -3 15 1 15 9 0 8 -1 14 -1 14 -1
0 -7 -4 -14 -9z"/>
<path d="M5728 8793 c6 -2 18 -2 25 0 6 3 1 5 -13 5 -14 0 -19 -2 -12 -5z"/>
<path d="M6603 8792 c-9 -6 8 -28 54 -72 37 -36 56 -52 43 -37 -14 16 -25 38
-25 50 0 15 -6 22 -21 23 -26 1 -44 12 -44 25 0 6 5 7 12 3 7 -4 8 -3 4 4 -8
14 -8 14 -23 4z m67 -52 c0 -5 -4 -10 -10 -10 -5 0 -10 5 -10 10 0 6 5 10 10
10 6 0 10 -4 10 -10z"/>
<path d="M6360 8783 c0 -4 11 -18 24 -30 17 -16 22 -31 20 -52 -2 -17 1 -33 6
-36 6 -4 7 -11 4 -17 -5 -7 -2 -8 5 -3 9 5 10 10 2 18 -21 21 -11 30 12 11
l22 -19 -22 26 c-31 35 -29 48 3 18 24 -22 49 -66 46 -81 -1 -3 6 -12 16 -20
15 -12 16 -11 4 4 -8 10 -9 19 -3 22 5 3 19 -6 31 -21 12 -16 18 -21 13 -11
-11 21 -183 202 -183 191z"/>
<path d="M6805 8739 c-4 -6 -5 -12 -2 -15 2 -3 7 2 10 11 7 17 1 20 -8 4z"/>
<path d="M5658 8733 c17 -2 47 -2 65 0 17 2 3 4 -33 4 -36 0 -50 -2 -32 -4z"/>
<path d="M2779 8711 c8 -5 10 -14 6 -22 -6 -11 -5 -11 5 -2 14 12 6 33 -13 33
-8 0 -7 -3 2 -9z"/>
<path d="M2003 8675 c0 -20 3 -24 17 -20 12 4 26 -5 44 -27 14 -18 26 -28 26
-23 0 13 -9 24 -51 63 l-36 34 0 -27z"/>
<path d="M2835 8680 c-8 -13 5 -13 25 0 13 8 13 10 -2 10 -9 0 -20 -4 -23 -10z"/>
<path d="M6238 8657 c-30 -13 -138 -113 -138 -128 0 -5 5 -9 10 -9 6 0 10 5
10 12 0 6 25 36 55 65 66 62 59 64 160 -48 85 -93 108 -106 158 -85 36 15 67
59 67 93 -1 17 -1 17 -11 0 -10 -17 -16 -38 -18 -61 -1 -4 -8 -5 -17 -2 -8 3
-12 2 -9 -4 8 -13 -40 -31 -62 -23 -26 9 -113 95 -113 112 0 8 -3 11 -6 8 -10
-10 -65 56 -59 71 2 6 3 12 2 12 -1 -1 -14 -6 -29 -13z"/>
<path d="M2360 8637 c-8 -7 -24 -25 -34 -42 -19 -29 -19 -29 -29 -7 -12 25
-22 28 -30 8 -4 -11 -1 -13 11 -9 13 5 14 3 5 -7 -6 -7 -9 -19 -6 -28 4 -9 2
-13 -3 -9 -6 3 -16 2 -24 -4 -12 -7 -12 -9 -1 -9 11 0 11 -3 0 -17 -7 -10 15
9 50 42 67 65 109 121 61 82z"/>
<path d="M6159 8623 c-13 -16 -12 -17 4 -4 16 13 21 21 13 21 -2 0 -10 -8 -17
-17z"/>
<path d="M1816 8617 c-16 -12 -16 -14 -3 -14 9 0 18 6 21 14 3 7 4 13 3 13 -2
0 -11 -6 -21 -13z"/>
<path d="M5901 8597 c-13 -21 -12 -21 5 -5 10 10 16 20 13 22 -3 3 -11 -5 -18
-17z"/>
<path d="M6110 8590 c-9 -6 -10 -10 -3 -10 6 0 15 5 18 10 8 12 4 12 -15 0z"/>
<path d="M6386 8528 c3 -5 10 -6 15 -3 13 9 11 12 -6 12 -8 0 -12 -4 -9 -9z"/>
<path d="M6162 8464 c36 -36 46 -54 42 -69 -4 -16 -3 -17 5 -5 8 12 14 10 36
-14 25 -27 25 -29 8 -43 -17 -13 -16 -13 4 -4 14 7 24 8 28 1 3 -5 1 -10 -4
-10 -6 0 -11 -8 -11 -17 0 -15 1 -15 13 2 13 17 15 17 30 -5 8 -12 13 -28 11
-35 -3 -7 -1 -16 4 -19 8 -5 9 12 3 47 -2 11 -192 211 -205 216 -6 2 10 -18
36 -45z"/>
<path d="M2251 8463 c8 -13 18 -23 22 -23 5 0 5 -10 2 -22 -6 -17 -4 -20 10
-14 20 7 48 -11 38 -27 -3 -5 -2 -8 3 -4 12 7 48 -19 41 -30 -3 -5 3 -9 14 -9
18 0 18 1 2 16 -10 9 -47 43 -82 76 -35 32 -58 49 -50 37z"/>
<path d="M2097 8295 c83 -75 163 -140 181 -146 43 -14 81 1 122 48 31 35 40
84 19 113 -8 11 -9 8 -4 -13 4 -19 2 -26 -5 -22 -5 3 -10 2 -10 -4 0 -5 4 -13
10 -16 6 -4 4 -17 -6 -36 -11 -22 -20 -28 -34 -24 -10 3 -22 0 -26 -6 -5 -9
-2 -10 9 -6 10 3 17 2 17 -3 0 -8 -28 -21 -58 -26 -8 -1 -27 2 -44 8 -22 8
-26 13 -16 19 10 7 10 9 -3 9 -8 0 -24 7 -35 16 -17 14 -17 15 -1 10 11 -4 16
-2 12 5 -4 6 -13 8 -19 6 -14 -6 -76 39 -76 54 0 6 6 7 13 3 6 -4 3 2 -7 14
-21 25 -36 31 -16 7 22 -27 -5 -16 -32 13 -32 35 -39 56 -25 73 10 11 9 11 -5
0 -10 -7 -15 -18 -12 -25 3 -6 -2 -2 -10 8 -9 11 -16 17 -16 13 0 -5 -6 -2
-14 5 -7 7 -11 20 -9 28 4 12 3 12 -5 1 -7 -9 -12 -10 -16 -2 -4 6 -12 11 -17
11 -5 0 57 -61 138 -135z"/>
<path d="M6039 8383 c-13 -16 -12 -17 4 -4 9 7 17 15 17 17 0 8 -8 3 -21 -13z"/>
<path d="M2327 8233 c-3 -5 6 -9 20 -10 19 -1 22 1 12 8 -17 11 -26 11 -32 2z"/>
<path d="M3065 5286 c-16 -7 -47 -32 -67 -55 l-38 -41 0 -311 c0 -352 -1 -348
77 -420 88 -81 267 -143 507 -176 81 -11 128 -22 141 -33 62 -54 68 -55 285
-60 l205 -5 3 -76 3 -76 -43 -7 c-107 -17 -244 -114 -314 -222 -94 -146 -103
-357 -22 -519 102 -203 343 -319 560 -271 199 44 348 179 402 366 20 65 22
196 5 265 -42 177 -213 351 -371 380 l-38 7 0 78 0 77 71 7 c39 3 83 12 97 20
15 8 92 18 177 25 404 29 700 113 815 231 61 63 61 60 58 408 -3 299 -4 318
-23 343 -31 42 -81 71 -128 76 l-44 5 -6 -40 c-4 -22 -15 -49 -24 -60 -22 -25
-170 -66 -310 -87 -354 -52 -1148 -55 -1496 -5 -223 32 -377 73 -377 102 0 7
-5 30 -11 51 -8 31 -14 37 -37 37 -15 -1 -40 -7 -57 -14z m2345 -463 c0 -102
-2 -184 -4 -182 -3 3 -6 84 -7 181 l-1 176 -40 -14 c-22 -8 -46 -14 -52 -13
-10 0 80 37 97 38 4 1 7 -83 7 -186z m-2265 -35 c0 -111 -3 -189 -6 -173 -9
43 -10 375 -1 375 4 0 7 -91 7 -202z m175 172 c20 -6 21 -8 5 -8 -11 0 -33 4
-50 8 -27 7 -27 8 -5 8 14 0 36 -4 50 -8z m1940 0 c-14 -4 -34 -8 -45 -8 -16
0 -15 2 5 8 14 4 34 8 45 8 16 0 15 -2 -5 -8z m-1825 -25 l60 -14 -55 6 c-30
3 -62 9 -70 14 -21 12 -4 10 65 -6z m1683 -2 c-10 -2 -26 -2 -35 0 -10 3 -2 5
17 5 19 0 27 -2 18 -5z m-113 -13 c-33 -4 -82 -8 -110 -7 l-50 0 60 7 c33 4
83 7 110 7 l50 0 -60 -7z m-1437 -7 c-10 -2 -26 -2 -35 0 -10 3 -2 5 17 5 19
0 27 -2 18 -5z m1240 -10 c-15 -2 -42 -2 -60 0 -18 2 -6 4 27 4 33 0 48 -2 33
-4z m-768 -10 c-109 -7 -220 -7 -220 0 0 4 60 6 133 5 72 -1 112 -3 87 -5z
m633 0 l-33 -4 0 -209 c0 -114 4 -210 9 -212 5 -1 3 -9 -5 -16 -12 -11 -14 21
-14 218 l0 230 38 -2 c36 -1 36 -1 5 -5z m-871 -83 l-4 -79 144 -4 143 -3
-147 -2 -148 -2 0 85 c0 47 3 85 8 85 4 0 6 -36 4 -80z m621 73 c3 -5 -47 -7
-111 -5 -208 4 -231 8 -60 10 92 1 169 -1 171 -5z m-816 -125 c-2 -24 -4 -5
-4 42 0 47 2 66 4 43 2 -24 2 -62 0 -85z m840 65 c-3 -10 -5 -4 -5 12 0 17 2
24 5 18 2 -7 2 -21 0 -30z m8 -361 c-10 -10 -10 3 -5 173 l5 170 3 -169 c1
-93 0 -171 -3 -174z m-295 238 c0 -5 -2 -10 -4 -10 -3 0 -8 5 -11 10 -3 6 -1
10 4 10 6 0 11 -4 11 -10z m-554 -247 c-2 -2 -19 1 -37 6 l-34 11 33 -3 32 -4
2 96 2 96 3 -99 c2 -54 2 -101 -1 -103z m1784 138 c0 -5 -7 -11 -14 -14 -10
-4 -13 -1 -9 9 6 15 23 19 23 5z m-1250 -31 c-22 -17 -41 -19 -165 -18 l-140
2 141 3 c121 3 144 6 160 22 10 10 21 16 24 14 3 -2 -6 -13 -20 -23z m-925 -8
c-3 -3 -11 0 -18 7 -9 10 -8 11 6 5 10 -3 15 -9 12 -12z m2115 -2 c-8 -5 -19
-10 -25 -10 -5 0 -3 5 5 10 8 5 20 10 25 10 6 0 3 -5 -5 -10z m-1990 -37 l25
-14 -25 7 c-14 4 -38 12 -55 20 l-30 13 30 -6 c17 -3 41 -12 55 -20z m457 -70
c-2 -21 -4 -6 -4 32 0 39 2 55 4 38 2 -18 2 -50 0 -70z m1488 87 c-3 -5 -14
-10 -23 -10 -15 0 -15 2 -2 10 20 13 33 13 25 0z m-1878 -6 c-3 -3 -12 -4 -19
-1 -8 3 -5 6 6 6 11 1 17 -2 13 -5z m1803 -19 c-19 -7 -44 -13 -55 -13 -11 0
-2 5 20 13 53 17 80 17 35 0z m-1809 -13 c-7 -2 -18 1 -23 6 -8 8 -4 9 13 5
13 -4 18 -8 10 -11z m56 -8 c-3 -3 -12 -4 -19 -1 -8 3 -5 6 6 6 11 1 17 -2 13
-5z m56 -11 c-7 -2 -21 -2 -30 0 -10 3 -4 5 12 5 17 0 24 -2 18 -5z m1560 0
c-7 -2 -19 -2 -25 0 -7 3 -2 5 12 5 14 0 19 -2 13 -5z m-78 -13 c-27 -12 -43
-12 -25 0 8 5 22 9 30 9 10 0 8 -3 -5 -9z m-110 -20 c-27 -5 -68 -8 -90 -8
-38 1 -38 1 10 8 28 4 68 7 90 7 38 0 37 0 -10 -7z m-145 -16 c-34 -7 -110 -9
-110 -2 0 5 28 7 63 7 34 -1 55 -3 47 -5z m-295 -34 c-3 -5 -11 -10 -16 -10
-6 0 -7 5 -4 10 3 6 11 10 16 10 6 0 7 -4 4 -10z m-600 -10 c13 -6 15 -9 5 -9
-8 0 -22 4 -30 9 -18 12 -2 12 25 0z m248 -17 c-40 -2 -106 -2 -145 0 -40 1
-8 3 72 3 80 0 112 -2 73 -3z m210 0 c-13 -2 -33 -2 -45 0 -13 2 -3 4 22 4 25
0 35 -2 23 -4z m-86 -509 c-3 -3 -12 -4 -19 -1 -8 3 -5 6 6 6 11 1 17 -2 13
-5z m66 -1 c-7 -2 -21 -2 -30 0 -10 3 -4 5 12 5 17 0 24 -2 18 -5z m-106 -9
c-3 -3 -12 -4 -19 -1 -8 3 -5 6 6 6 11 1 17 -2 13 -5z m186 -1 c-7 -2 -19 -2
-25 0 -7 3 -2 5 12 5 14 0 19 -2 13 -5z m-243 -23 c-24 -15 -36 -11 -14 4 10
8 21 12 24 10 2 -3 -2 -9 -10 -14z m367 -36 l38 -35 -48 36 c-27 19 -55 35
-62 35 -8 0 -16 4 -20 10 -13 21 55 -13 92 -46z m-407 22 c0 -2 -12 -12 -27
-21 l-28 -18 19 21 c17 20 36 29 36 18z m-80 -73 c-1 -5 -12 -21 -26 -38 -23
-27 -24 -27 -14 -5 20 40 41 62 40 43z m580 -67 c0 -12 -5 -7 -19 24 -11 24
-11 24 3 6 9 -11 16 -24 16 -30z m-650 -116 c-7 -71 -7 -72 -8 -20 -2 48 6
106 13 98 1 -2 -1 -37 -5 -78z m677 -47 c-2 -21 -4 -6 -4 32 0 39 2 55 4 38 2
-18 2 -50 0 -70z m-12 -75 c-10 -36 -38 -99 -42 -94 -5 4 37 116 43 116 3 0 3
-10 -1 -22z m-645 -3 c0 -8 -2 -15 -4 -15 -2 0 -6 7 -10 15 -3 8 -1 15 4 15 6
0 10 -7 10 -15z m51 -103 c6 -7 9 -16 6 -18 -6 -6 -47 50 -47 63 0 4 7 -1 15
-12 8 -11 19 -26 26 -33z m530 -15 c-10 -9 -11 -8 -5 6 3 10 9 15 12 12 3 -3
0 -11 -7 -18z m-36 -43 c-34 -28 -86 -56 -92 -50 -3 2 18 16 46 32 28 15 51
31 51 36 0 4 6 8 13 8 6 -1 -1 -12 -18 -26z m-375 -44 c8 -5 11 -10 5 -10 -5
0 -21 10 -35 21 -24 20 -5 13 30 -11z m145 -31 c28 -5 19 -6 -30 -2 -38 3 -77
9 -85 14 -16 8 48 2 115 -12z m98 4 c-7 -2 -19 -2 -25 0 -7 3 -2 5 12 5 14 0
19 -2 13 -5z"/>
</g>
</svg>
